<svg width="512" height="512" viewBox="0 0 512 512" fill="none" xmlns="http://www.w3.org/2000/svg">
  <path d="M256 0C114.6 0 0 114.6 0 256S114.6 512 256 512s256-114.6 256-256S397.4 0 256 0zM381.1 297.6L322.2 256l58.9-41.6c3.166-2.186 3.966-6.516 1.78-9.682s-6.516-3.966-9.682-1.78L296 256l77.2 53.1c3.166 2.186 7.496 1.386 9.682-1.78S384.3 299.8 381.1 297.6zM130.9 297.6L189.8 256l-58.9-41.6c-3.166-2.186-7.496-1.386-9.682 1.78s-1.386 7.496 1.78 9.682L216 256l-77.2 53.1c-3.166 2.186-3.966 6.516-1.78 9.682s6.516 3.966 9.682 1.78z" fill="currentColor"/>
</svg> 